<svg xmlns="http://www.w3.org/2000/svg" viewBox="0 0 42 42" class="injected-svg" style="height:3em" data-src="/svg/MoblabLogo.svg" xmlns:xlink="http://www.w3.org/1999/xlink">
  <g id="h-tag" transform="translate(-32 -31)">
    <path id="logomark" d="M55.447,34.173l-5.472,3.133L44.5,34.173,49.975,31Zm-5.472,3.133L44.5,40.478l5.472,3.173,5.512-3.173Zm10.985,0-5.472,3.173,5.472,3.133,5.512-3.173ZM49.975,43.651,44.5,46.824l5.472,3.133,5.512-3.173ZM38.99,37.345l-5.472,3.173,5.472,3.133L44.5,40.478ZM49.975,52.812,32,42.065V61.378l6.591,4.442v-11.9l5.632,3.49V69.548l5.752,3.886,5.712-3.847V57.452l5.672-3.49V65.82l6.591-4.442V42.065Z" transform="translate(0 0)" fill="#ee2a49"></path>
  </g>
</svg>